<svg width="2800" height="4200" xmlns="http://www.w3.org/2000/svg" preserveAspectRatio="xMidYMid meet">

 <g>
  <title>background</title>
  <rect fill="none" id="canvas_background" height="4202" width="2802" y="-1" x="-1"/>
 </g>
 <g>
  <title>Layer 1</title>
  <g fill="#ffffff" id="layer101">
   <path id="svg_1" d="m1237.834473,4116.63623c-224,-25 -450,-109 -618,-228c-163,-114 -271,-243 -360,-426c-101,-206 -140,-399 -132,-639c7,-216 41,-354 137,-554c64,-135 156,-277 583,-906c197,-291 363,-543 367,-560c5,-18 16,-97 25,-177c9,-80 20,-165 24,-190l8,-45l6,45c4,25 16,124 28,220c32,271 85,632 129,882c22,124 40,228 40,231c0,2 80,7 178,10c193,5 283,24 419,87c170,79 354,243 447,398c100,168 144,328 153,558c14,354 -81,630 -305,891c-168,196 -434,338 -725,388c-110,19 -309,26 -404,15zm352,-774c278,-137 341,-489 126,-704c-93,-93 -221,-139 -366,-129c-225,13 -389,177 -402,402c-14,212 101,386 302,458c39,14 73,17 157,14c100,-3 112,-6 183,-41z"/>
   <path id="svg_2" d="m1202.834473,310.63623c-56,-30 -74,-112 -38,-171c50,-82 160,-82 210,0c37,59 17,141 -42,173c-31,18 -97,17 -130,-2z"/>
  </g>
 </g>
</svg>